<svg width="101" height="40" viewBox="0 0 101 40" fill="none" xmlns="http://www.w3.org/2000/svg">
<path d="M101 0L27.1093 35.5958C20.9819 38.5319 15.8365 40 11.673 40C6.95962 40 3.54101 38.132 1.41719 34.3959C0.0845339 31.9962 -0.308248 28.9521 0.238841 25.2637C0.788736 21.5752 2.24203 17.6423 4.59872 13.4651C6.56263 10.0845 9.78484 5.6406 14.2654 0.133317C12.7436 2.84003 11.6288 5.81326 10.966 8.93227C9.78765 14.6205 10.8482 18.7978 14.1475 21.4641C15.7187 22.7084 17.879 23.3306 20.6284 23.3306C22.8252 23.3306 25.2997 22.9306 28.052 22.1307L101 0Z" fill="black"/>
</svg>
